<svg xmlns="http://www.w3.org/2000/svg" width="900" height="900"><style>.nodetext { fill: green; font-family: "DejaVu Sans"; }</style><g><path d="M642.857,112.5L642.857,337.5L771.429,337.5L771.429,562.5L771.429,562.5L771.429,787.5L771.429,787.5L771.429,837.5L771.429,837.5" fill="none" stroke-width="4px" stroke="#000000"></path><path d="M642.857,112.5L642.857,337.5L642.857,337.5L642.857,387.5L642.857,387.5" fill="none" stroke-width="4px" stroke="#000000"></path><path d="M642.857,112.5L642.857,337.5L385.714,337.5L385.714,387.5L385.714,387.5" fill="none" stroke-width="4px" stroke="#000000"></path><path d="M642.857,112.5L642.857,337.5L128.571,337.5L128.571,387.5L128.571,387.5" fill="none" stroke-width="4px" stroke="#000000"></path><path d="M385.714,337.5L385.714,562.5L642.857,562.5L642.857,612.5L642.857,612.5" fill="none" stroke-width="4px" stroke="#000000"></path><path d="M642.857,562.5L642.857,787.5L771.429,787.5L771.429,837.5L771.429,837.5" fill="none" stroke-width="4px" stroke="#000000"></path></g><g><g transform="translate(642.8571428571429, 112.5)"><rect x="-110" y="-25" rx="25" width="220" height="50" fill="#0099FF"></rect><rect x="-110" y="-25" rx="25" width="220" height="50" fill="none" stroke="#000000" stroke-width="3px" opacity=".70"></rect><text class="nodetext" font-weight="bolder" text-anchor="middle" dy="8px" fill="white" font-size="26px">static noise</text></g><g transform="translate(128.57142857142858, 387.5)"><rect x="-110" y="-25" rx="25" width="220" height="50" fill="#ff0000"></rect><rect x="-110" y="-25" rx="25" width="220" height="50" fill="none" stroke="#000000" stroke-width="3px" opacity=".70"></rect><text class="nodetext" font-weight="bolder" text-anchor="middle" dy="8px" fill="white" font-size="26px">꒰ Angel Pop..</text></g><g transform="translate(385.7142857142858, 387.5)"><rect x="-110" y="-25" rx="25" width="220" height="50" fill="#ff9900"></rect><rect x="-110" y="-25" rx="25" width="220" height="50" fill="none" stroke="#000000" stroke-width="3px" opacity=".70"></rect><text class="nodetext" font-weight="bolder" text-anchor="middle" dy="8px" fill="white" font-size="26px">Boat</text></g><g transform="translate(642.8571428571429, 612.5)"><rect x="-110" y="-25" rx="25" width="220" height="50" fill="#0000ff"></rect><rect x="-110" y="-25" rx="25" width="220" height="50" fill="none" stroke="#000000" stroke-width="3px" opacity=".70"></rect><text class="nodetext" font-weight="bolder" text-anchor="middle" dy="8px" fill="white" font-size="26px">Concubine</text></g><g transform="translate(771.4285714285716, 837.5)"><rect x="-110" y="-25" rx="25" width="220" height="50" fill="#0000ff"></rect><rect x="-110" y="-25" rx="25" width="220" height="50" fill="none" stroke="#000000" stroke-width="3px" opacity=".70"></rect><text class="nodetext" font-weight="bolder" text-anchor="middle" dy="8px" fill="white" font-size="26px">BibleBot</text></g><g transform="translate(642.8571428571429, 387.5)"><rect x="-110" y="-25" rx="25" width="220" height="50" fill="#ff0000"></rect><rect x="-110" y="-25" rx="25" width="220" height="50" fill="none" stroke="#000000" stroke-width="3px" opacity=".70"></rect><text class="nodetext" font-weight="bolder" text-anchor="middle" dy="8px" fill="white" font-size="26px">Ansy ✨</text></g></g></svg>